<svg width="90" height="90" viewBox="0 0 190 190" fill="none" xmlns="http://www.w3.org/2000/svg">
<path fill-rule="evenodd" clip-rule="evenodd" d="M95 0C42.5125 0 0 42.5125 0 95C0 137.037 27.1937 172.544 64.9562 185.131C69.7062 185.963 71.4875 183.113 71.4875 180.619C71.4875 178.363 71.3688 170.881 71.3688 162.925C47.5 167.319 41.325 157.106 39.425 151.762C38.3562 149.031 33.725 140.6 29.6875 138.344C26.3625 136.562 21.6125 132.169 29.5688 132.05C37.05 131.931 42.3938 138.937 44.175 141.787C52.725 156.156 66.3813 152.119 71.8438 149.625C72.675 143.45 75.1687 139.294 77.9 136.919C56.7625 134.544 34.675 126.35 34.675 90.0125C34.675 79.6812 38.3563 71.1312 44.4125 64.4812C43.4625 62.1062 40.1375 52.3687 45.3625 39.3062C45.3625 39.3062 53.3188 36.8125 71.4875 49.0438C79.0875 46.9063 87.1625 45.8375 95.2375 45.8375C103.313 45.8375 111.388 46.9063 118.988 49.0438C137.156 36.6938 145.113 39.3062 145.113 39.3062C150.338 52.3687 147.013 62.1062 146.063 64.4812C152.119 71.1312 155.8 79.5625 155.8 90.0125C155.8 126.469 133.594 134.544 112.456 136.919C115.9 139.887 118.869 145.588 118.869 154.494C118.869 167.2 118.75 177.413 118.75 180.619C118.75 183.113 120.531 186.081 125.281 185.131C162.806 172.544 190 136.919 190 95C190 42.5125 147.488 0 95 0V0Z" fill="#B28756"/>
</svg>
